HIERARCHY
ROOT Hips
{
	OFFSET 0.000000 0.000000 0.000000
	CHANNELS 6 Xposition Yposition Zposition Xrotation Yrotation Zrotation
	JOINT LeftUpLeg_virtual
	{
		OFFSET 0.000000 0.000000 0.000000
		CHANNELS 3 Xrotation Yrotation Zrotation
		JOINT LeftUpLeg
		{
			OFFSET 11.394100 -6.187798 -0.413800
			CHANNELS 3 Xrotation Yrotation Zrotation
			JOINT LeftLeg
			{
				OFFSET 0.430247 -32.302673 3.732800
				CHANNELS 3 Xrotation Yrotation Zrotation
				JOINT LeftFoot
				{
					OFFSET -0.430247 -48.264931 -6.423300
					CHANNELS 3 Xrotation Yrotation Zrotation
					JOINT LeftToeBase
					{
						OFFSET 4.230900 -16.068199 23.438400
						CHANNELS 3 Xrotation Yrotation Zrotation
						JOINT LeftToe_End
						{
							OFFSET 4.510700 0.695400 19.974600
							CHANNELS 3 Xrotation Yrotation Zrotation
							End Site
							{
								OFFSET 0 0 0
							}
						}
					}
				}
			}
		}
	}
	JOINT RightUpLeg_virtual
	{
		OFFSET 0.000000 0.000000 0.000000
		CHANNELS 3 Xrotation Yrotation Zrotation
		JOINT RightUpLeg
		{
			OFFSET -11.333700 -6.187798 -0.413800
			CHANNELS 3 Xrotation Yrotation Zrotation
			JOINT RightLeg
			{
				OFFSET -0.430392 -32.302628 3.733000
				CHANNELS 3 Xrotation Yrotation Zrotation
				JOINT RightFoot
				{
					OFFSET 0.430392 -48.264973 -6.423500
					CHANNELS 3 Xrotation Yrotation Zrotation
					JOINT RightToeBase
					{
						OFFSET -4.230900 -16.068199 23.438400
						CHANNELS 3 Xrotation Yrotation Zrotation
						JOINT RightToe_End
						{
							OFFSET -4.510700 0.695400 19.974600
							CHANNELS 3 Xrotation Yrotation Zrotation
							End Site
							{
								OFFSET 0 0 0
							}
						}
					}
				}
			}
		}
	}
	JOINT Spine_virtual
	{
		OFFSET 0.000000 0.000000 0.000000
		CHANNELS 3 Xrotation Yrotation Zrotation
		JOINT Spine
		{
			OFFSET -0.002400 12.777504 0.315300
			CHANNELS 3 Xrotation Yrotation Zrotation
			JOINT Spine1
			{
				OFFSET -0.002067 5.816869 0.032633
				CHANNELS 3 Xrotation Yrotation Zrotation
				JOINT Spine1_split
				{
					OFFSET -0.002067 5.816869 0.032633
					CHANNELS 3 Xrotation Yrotation Zrotation
					JOINT Spine2
					{
						OFFSET -0.002067 5.816869 0.032633
						CHANNELS 3 Xrotation Yrotation Zrotation
						JOINT Neck_virtual
						{
							OFFSET 0.000000 0.000000 0.000000
							CHANNELS 3 Xrotation Yrotation Zrotation
							JOINT Neck
							{
								OFFSET -0.003700 21.199493 -0.826900
								CHANNELS 3 Xrotation Yrotation Zrotation
								JOINT Head
								{
									OFFSET 0.000000 20.442200 4.834800
									CHANNELS 3 Xrotation Yrotation Zrotation
									JOINT HeadTop_End
									{
										OFFSET 0.000000 34.668396 4.968400
										CHANNELS 3 Xrotation Yrotation Zrotation
										End Site
										{
											OFFSET 0 0 0
										}
									}
								}
							}
						}
						JOINT LeftShoulder_virtual
						{
							OFFSET 0.000000 0.000000 0.000000
							CHANNELS 3 Xrotation Yrotation Zrotation
							JOINT LeftShoulder
							{
								OFFSET 3.288150 8.794197 -1.372250
								CHANNELS 3 Xrotation Yrotation Zrotation
								JOINT LeftShoulder_split
								{
									OFFSET 3.288150 8.794197 -1.372250
									CHANNELS 3 Xrotation Yrotation Zrotation
									JOINT LeftArm
									{
										OFFSET 11.953299 -2.279007 -0.146200
										CHANNELS 3 Xrotation Yrotation Zrotation
										JOINT LeftForeArm
										{
											OFFSET 18.448900 0.000000 0.000000
											CHANNELS 3 Xrotation Yrotation Zrotation
											JOINT LeftHand
											{
												OFFSET 29.527798 0.000000 0.000000
												CHANNELS 3 Xrotation Yrotation Zrotation
												End Site
												{
													OFFSET 0 0 0
												}
											}
										}
									}
								}
							}
						}
						JOINT RightShoulder_virtual
						{
							OFFSET 0.000000 0.000000 0.000000
							CHANNELS 3 Xrotation Yrotation Zrotation
							JOINT RightShoulder
							{
								OFFSET -3.249400 8.794197 -1.372250
								CHANNELS 3 Xrotation Yrotation Zrotation
								JOINT RightShoulder_split
								{
									OFFSET -3.249400 8.794197 -1.372250
									CHANNELS 3 Xrotation Yrotation Zrotation
									JOINT RightArm
									{
										OFFSET -11.953299 -2.279007 -0.146200
										CHANNELS 3 Xrotation Yrotation Zrotation
										JOINT RightForeArm
										{
											OFFSET -18.448900 0.000000 0.000000
											CHANNELS 3 Xrotation Yrotation Zrotation
											JOINT RightHand
											{
												OFFSET -29.527802 0.000000 0.000000
												CHANNELS 3 Xrotation Yrotation Zrotation
												End Site
												{
													OFFSET 0 0 0
												}
											}
										}
									}
								}
							}
						}
					}
				}
			}
		}
	}
}
MOTION
Frames: 4
Frame Time: 0.03333333
-0.136839 83.717003 -0.779301 0.000000 0.000000 0.000000 -15.882131 4.398425 0.432159 -21.401290 -1.724294 13.896825 55.499061 2.034679 0.597850 -22.046024 -0.317806 -11.884528 -0.791331 -0.162115 0.687528 0.000000 0.000000 0.000000 -16.360504 2.629459 0.274324 -19.764834 -4.192355 -15.617313 55.940639 0.012030 -0.443758 -24.646417 -4.795815 11.387581 2.201583 0.260045 -1.253657 0.000000 0.000000 0.000000 -15.203077 1.558496 -0.162670 18.803190 0.039352 2.671959 5.817541 -0.032143 -0.202594 2.171594 5.459511 -0.378630 0.000000 0.000000 0.000000 6.008537 -0.167213 0.415039 -11.056659 -1.328532 2.625268 -17.334452 2.040804 -0.831834 0.000000 0.000000 0.000000 7.870235 -0.210366 0.719685 3.591571 -7.836163 -4.675270 -4.940514 -1.086209 -4.218785 -10.541739 -17.533838 -58.388569 70.493904 -61.704578 70.901380 0.000000 0.000000 0.000000 7.509146 -0.083014 -0.100339 10.089053 -5.641952 16.105641 3.699900 2.783028 -0.996713 -27.637153 11.812374 60.424450 89.865537 61.336144 -84.543842 0.000000 0.000000 0.000000 
-0.245425 83.696724 -0.577667 0.000000 0.000000 0.000000 -15.983633 4.475957 0.353785 -21.327496 -1.976564 13.994690 55.433518 1.934140 0.594483 -22.168738 -0.344290 -11.864053 -0.653398 -0.147377 0.706653 0.000000 0.000000 0.000000 -16.454028 3.067607 0.269082 -19.441377 -4.163739 -15.535803 56.088178 0.038168 -0.432314 -24.913175 -4.758628 11.174808 2.527932 0.302576 -1.294941 0.000000 0.000000 0.000000 -15.366112 1.910254 -0.224461 18.743562 -0.044308 2.631520 6.003681 -0.009946 -0.134041 2.034059 5.548905 -0.136608 0.000000 0.000000 0.000000 6.104359 -0.192388 0.460618 -11.328241 -1.089980 2.192083 -17.495769 2.274342 -0.872293 0.000000 0.000000 0.000000 7.920059 -0.154111 0.794436 3.683125 -7.799291 -4.306545 -4.598000 -1.169102 -4.395445 -12.540477 -17.880819 -60.020731 68.078947 -61.287451 68.616777 0.000000 0.000000 0.000000 7.621628 -0.089467 -0.058666 9.912029 -5.930142 16.149841 3.788391 2.064833 0.624199 -27.180258 10.516195 60.778705 87.561502 62.451090 -82.614683 0.000000 0.000000 0.000000 
-0.363046 83.729637 -0.371620 0.000000 0.000000 0.000000 -16.291058 4.631699 0.322546 -21.124455 -2.272445 13.939302 55.426254 1.813649 0.653271 -22.430662 -0.323823 -11.907152 -0.470303 -0.089594 0.615668 0.000000 0.000000 0.000000 -16.673994 3.514705 0.260556 -18.783111 -4.350653 -15.518557 56.110113 0.190875 -0.470324 -25.084554 -4.757193 11.218501 2.461180 0.289698 -1.341924 0.000000 0.000000 0.000000 -15.759084 2.453860 -0.286260 18.874258 -0.233937 2.444129 6.361786 0.085629 -0.005104 1.842903 4.814687 0.033458 0.000000 0.000000 0.000000 6.398852 -0.106413 0.464726 -11.209593 -0.828313 1.325493 -18.033883 2.399689 -0.859575 0.000000 0.000000 0.000000 8.057570 -0.034435 0.875736 3.510508 -8.503305 -3.997574 -4.395448 -1.937119 -3.590359 -12.823053 -17.086951 -60.114455 61.703164 -61.989001 62.550975 0.000000 0.000000 0.000000 7.947045 0.017939 0.063779 9.478843 -6.027852 16.247563 2.366776 1.571641 1.066811 -25.145633 11.274430 59.717799 83.698470 65.811017 -79.765510 0.000000 0.000000 0.000000 
-0.442707 83.850906 -0.207878 0.000000 0.000000 0.000000 -16.753349 4.813966 0.361727 -20.708112 -2.494256 13.672692 55.403595 1.734429 0.781723 -22.745172 -0.255115 -11.922115 -0.331850 -0.009059 0.452760 0.000000 0.000000 0.000000 -16.982741 3.862095 0.278456 -17.817100 -4.742821 -15.573461 55.951953 0.386032 -0.517250 -25.260442 -4.827455 11.333440 2.178092 0.226494 -1.346508 0.000000 0.000000 0.000000 -16.292313 2.936071 -0.291614 19.129635 -0.518686 2.160436 6.806842 0.210407 0.115464 1.420526 3.512528 0.650019 0.000000 0.000000 0.000000 6.836949 0.005613 0.429503 -10.516436 -0.544928 0.197052 -18.671890 2.506256 -0.914976 0.000000 0.000000 0.000000 8.245490 0.074633 0.927599 3.141081 -9.749367 -3.564795 -4.300428 -3.281469 -2.387137 -11.176736 -15.636075 -58.083013 53.447610 -63.966388 54.617341 0.000000 0.000000 0.000000 8.375403 0.141569 0.205235 8.910203 -5.913542 16.095553 0.026759 1.241567 0.753137 -20.917924 13.554642 56.524416 80.482414 71.146665 -77.749799 0.000000 0.000000 0.000000 
